<?xml version="1.0" encoding="UTF-8"?>
<svg xmlns="http://www.w3.org/2000/svg" xmlns:xlink="http://www.w3.org/1999/xlink" width="64pt" height="64pt" viewBox="0 0 64 64" version="1.1">
<g id="surface1">
<path style=" stroke:none;fill-rule:nonzero;fill:rgb(83.529412%,64.313725%,28.627451%);fill-opacity:1;" d="M 0 31.988281 C 0 49.652344 14.328125 63.980469 31.988281 63.980469 C 49.652344 63.980469 63.980469 49.652344 63.980469 31.988281 C 64 14.328125 49.671875 0 31.988281 0 C 14.328125 0 0 14.328125 0 31.988281 Z M 0 31.988281 "/>
<path style=" stroke:none;fill-rule:nonzero;fill:rgb(52.54902%,14.901961%,13.72549%);fill-opacity:1;" d="M 62.4375 31.398438 C 62.4375 48.214844 48.808594 61.847656 31.988281 61.847656 C 15.191406 61.847656 1.5625 48.214844 1.5625 31.398438 C 1.5625 14.582031 15.191406 0.949219 31.988281 0.949219 C 48.808594 0.949219 62.4375 14.582031 62.4375 31.398438 Z M 62.4375 31.398438 "/>
<path style=" stroke:none;fill-rule:nonzero;fill:rgb(16.862745%,15.294118%,14.117647%);fill-opacity:1;" d="M 57.078125 33.613281 L 55.664062 32.199219 L 60.265625 27.601562 C 60.136719 26.460938 59.96875 25.320312 59.714844 24.222656 L 51.867188 32.074219 L 50.832031 31.039062 C 50.539062 41.167969 42.203125 49.335938 31.988281 49.335938 C 21.734375 49.335938 13.378906 41.105469 13.144531 30.914062 L 4.917969 39.144531 C 7.027344 45.726562 11.480469 51.277344 17.28125 54.800781 L 17.261719 54.800781 C 18.167969 55.347656 19.074219 55.832031 20.023438 56.277344 C 22.832031 57.585938 25.890625 58.449219 29.121094 58.765625 L 29.140625 58.746094 C 31.039062 58.9375 32.9375 58.9375 34.839844 58.746094 L 34.859375 58.765625 C 37.097656 58.535156 39.269531 58.050781 41.335938 57.332031 C 41.570312 57.246094 41.78125 57.183594 42.011719 57.101562 C 42.097656 57.058594 42.179688 57.035156 42.265625 56.996094 C 42.5625 56.890625 42.855469 56.761719 43.152344 56.636719 C 43.195312 56.613281 43.238281 56.59375 43.277344 56.574219 C 45.070312 55.792969 46.800781 54.84375 48.425781 53.679688 L 48.40625 53.679688 C 54.949219 49.039062 59.441406 41.738281 60.285156 33.339844 L 58.808594 31.863281 Z M 57.078125 33.613281 "/>
<path style=" stroke:none;fill-rule:nonzero;fill:rgb(16.862745%,15.294118%,14.117647%);fill-opacity:1;" d="M 13.167969 29.964844 C 13.460938 19.835938 21.796875 11.667969 32.011719 11.667969 C 42.265625 11.667969 50.621094 19.898438 50.855469 30.089844 L 59.082031 21.859375 C 56.972656 15.277344 52.519531 9.726562 46.71875 6.203125 L 46.738281 6.203125 C 45.832031 5.65625 44.925781 5.167969 43.976562 4.726562 C 41.167969 3.417969 38.109375 2.554688 34.878906 2.238281 L 34.859375 2.257812 C 32.960938 2.066406 31.0625 2.066406 29.160156 2.257812 L 29.140625 2.238281 C 26.925781 2.46875 24.773438 2.953125 22.726562 3.652344 C 22.472656 3.734375 22.242188 3.820312 21.988281 3.902344 C 21.902344 3.925781 21.839844 3.96875 21.753906 3.988281 C 21.460938 4.113281 21.144531 4.21875 20.847656 4.367188 C 20.804688 4.390625 20.785156 4.390625 20.742188 4.410156 C 18.949219 5.191406 17.21875 6.140625 15.574219 7.300781 L 15.59375 7.300781 C 9.050781 11.941406 4.558594 19.246094 3.714844 27.644531 L 5.148438 29.078125 L 7.070312 27.15625 L 8.484375 28.570312 L 6.5625 30.492188 L 6.582031 30.511719 L 3.714844 33.382812 C 3.839844 34.542969 4.007812 35.683594 4.261719 36.800781 L 12.113281 28.949219 Z M 13.167969 29.964844 "/>
<path style=" stroke:none;fill-rule:nonzero;fill:rgb(16.862745%,15.294118%,14.117647%);fill-opacity:1;" d="M 48.425781 42.054688 C 48.425781 51.148438 41.0625 58.515625 31.96875 58.515625 C 22.875 58.515625 15.507812 51.148438 15.507812 42.054688 C 15.507812 32.960938 22.875 25.597656 31.96875 25.597656 C 41.042969 25.597656 48.425781 32.980469 48.425781 42.054688 Z M 48.425781 42.054688 "/>
<path style=" stroke:none;fill-rule:nonzero;fill:rgb(55.294118%,37.254902%,16.470588%);fill-opacity:1;" d="M 45.621094 40.199219 C 45.621094 47.730469 39.5 53.851562 31.96875 53.851562 C 24.433594 53.851562 18.316406 47.730469 18.316406 40.199219 C 18.316406 32.664062 24.433594 26.546875 31.96875 26.546875 C 39.5 26.546875 45.621094 32.664062 45.621094 40.199219 Z M 45.621094 40.199219 "/>
<path style=" stroke:none;fill-rule:nonzero;fill:rgb(83.529412%,64.313725%,28.627451%);fill-opacity:1;" d="M 43.59375 38.574219 C 43.59375 32.160156 38.382812 26.945312 31.96875 26.945312 C 25.554688 26.945312 20.339844 32.160156 20.339844 38.574219 L 20.339844 38.613281 C 20.339844 45.03125 25.554688 50.242188 31.96875 50.242188 C 38.382812 50.242188 43.59375 45.03125 43.59375 38.613281 Z M 43.59375 38.574219 "/>
<path style=" stroke:none;fill-rule:nonzero;fill:rgb(55.294118%,37.254902%,16.470588%);fill-opacity:1;" d="M 25.785156 43.804688 C 25.785156 43.804688 23.949219 45.21875 21.714844 45.324219 L 23.296875 46.886719 L 27.007812 44.648438 Z M 25.785156 43.804688 "/>
<path style=" stroke:none;fill-rule:nonzero;fill:rgb(55.294118%,37.254902%,16.470588%);fill-opacity:1;" d="M 38.152344 43.804688 C 38.152344 43.804688 39.988281 45.21875 42.222656 45.324219 L 40.640625 46.886719 L 36.925781 44.648438 Z M 38.152344 43.804688 "/>
<path style=" stroke:none;fill-rule:nonzero;fill:rgb(55.294118%,37.254902%,16.470588%);fill-opacity:1;" d="M 37.730469 45.347656 C 37.730469 45.347656 40.914062 40.765625 44.503906 38.742188 L 44.503906 37.371094 C 44.503906 37.371094 38.867188 39.796875 36.230469 44.566406 Z M 37.730469 45.347656 "/>
<path style=" stroke:none;fill-rule:nonzero;fill:rgb(55.294118%,37.254902%,16.470588%);fill-opacity:1;" d="M 26.1875 45.347656 C 26.1875 45.347656 23 40.765625 19.414062 38.742188 L 19.414062 37.371094 C 19.414062 37.371094 25.046875 39.796875 27.683594 44.566406 Z M 26.1875 45.347656 "/>
<path style=" stroke:none;fill-rule:nonzero;fill:rgb(55.294118%,37.254902%,16.470588%);fill-opacity:1;" d="M 21.1875 34.121094 C 21.1875 34.121094 26.480469 34.859375 33.109375 39.816406 L 31.417969 41.316406 C 31.417969 41.316406 28.382812 36.335938 20.679688 34.710938 Z M 21.1875 34.121094 "/>
<path style=" stroke:none;fill-rule:nonzero;fill:rgb(55.294118%,37.254902%,16.470588%);fill-opacity:1;" d="M 42.730469 34.121094 C 42.730469 34.121094 37.433594 34.859375 30.808594 39.816406 L 32.496094 41.316406 C 32.496094 41.316406 35.535156 36.335938 43.238281 34.710938 Z M 42.730469 34.121094 "/>
<path style=" stroke:none;fill-rule:nonzero;fill:rgb(55.294118%,37.254902%,16.470588%);fill-opacity:1;" d="M 36.570312 31.1875 C 36.886719 30.324219 37.707031 29.859375 38.679688 29.859375 C 39.355469 29.859375 40.175781 30.324219 40.597656 30.785156 L 40.914062 29.902344 C 40.914062 29.902344 39.671875 28.761719 37.75 28.949219 C 35.851562 29.140625 36.570312 31.1875 36.570312 31.1875 Z M 36.570312 31.1875 "/>
<path style=" stroke:none;fill-rule:nonzero;fill:rgb(55.294118%,37.254902%,16.470588%);fill-opacity:1;" d="M 27.347656 31.1875 C 27.03125 30.324219 26.207031 29.859375 25.238281 29.859375 C 24.5625 29.859375 23.738281 30.324219 23.316406 30.785156 L 23 29.902344 C 23 29.902344 24.246094 28.761719 26.164062 28.949219 C 28.066406 29.140625 27.347656 31.1875 27.347656 31.1875 Z M 27.347656 31.1875 "/>
<path style=" stroke:none;fill-rule:nonzero;fill:rgb(16.862745%,15.294118%,14.117647%);fill-opacity:1;" d="M 44.164062 23.210938 C 44.988281 21.503906 44.839844 20.023438 44.839844 20.023438 C 44.1875 19.792969 43.257812 19.644531 43.257812 19.644531 C 43.320312 18.652344 43.089844 13.671875 31.988281 10.59375 L 31.988281 10.804688 L 31.96875 10.59375 C 20.847656 13.671875 20.617188 18.632812 20.679688 19.625 C 20.679688 19.625 19.730469 19.792969 19.097656 20.003906 C 19.097656 20.003906 18.949219 21.480469 19.773438 23.191406 C 17.199219 28.910156 20.996094 31.144531 20.996094 31.144531 L 23.167969 29.730469 C 23.167969 29.730469 24.539062 28.402344 26.292969 29.6875 C 27.304688 30.429688 27.496094 31.609375 27.496094 31.609375 C 27.496094 31.609375 29.351562 32.03125 31.503906 32.09375 C 31.652344 32.09375 31.820312 32.09375 31.96875 32.09375 C 33.023438 32.09375 34.058594 31.988281 34.839844 31.882812 C 35.789062 31.757812 36.441406 31.609375 36.441406 31.609375 C 36.441406 31.609375 36.632812 30.449219 37.644531 29.6875 C 39.394531 28.402344 40.765625 29.730469 40.765625 29.730469 L 42.941406 31.144531 C 42.941406 31.167969 46.738281 28.929688 44.164062 23.210938 Z M 44.164062 23.210938 "/>
<path style=" stroke:none;fill-rule:nonzero;fill:rgb(55.294118%,37.254902%,16.470588%);fill-opacity:1;" d="M 21.3125 25.597656 C 21.753906 26.058594 22.136719 27.601562 21.796875 28.382812 C 21.796875 28.382812 19.707031 27.261719 20.445312 24.203125 C 20.445312 24.203125 20.867188 25.132812 21.3125 25.597656 Z M 21.3125 25.597656 "/>
<path style=" stroke:none;fill-rule:nonzero;fill:rgb(55.294118%,37.254902%,16.470588%);fill-opacity:1;" d="M 43.488281 24.203125 C 44.207031 27.261719 42.140625 28.382812 42.140625 28.382812 C 41.800781 27.601562 42.179688 26.058594 42.644531 25.597656 C 43.066406 25.132812 43.488281 24.203125 43.488281 24.203125 Z M 43.488281 24.203125 "/>
<path style=" stroke:none;fill-rule:nonzero;fill:rgb(55.294118%,37.254902%,16.470588%);fill-opacity:1;" d="M 43.238281 20.65625 C 43.238281 20.65625 43.363281 22.746094 41.824219 24.246094 C 40.28125 25.742188 40.515625 28.128906 40.515625 28.128906 C 40.515625 28.128906 38.46875 27.664062 36.105469 28.738281 C 33.742188 29.796875 32.496094 26.355469 32.496094 26.355469 L 31.398438 26.355469 C 31.398438 26.355469 30.152344 29.816406 27.789062 28.738281 C 25.425781 27.664062 23.378906 28.128906 23.378906 28.128906 C 23.378906 28.128906 23.613281 25.742188 22.070312 24.246094 C 20.53125 22.746094 20.65625 20.65625 20.65625 20.65625 C 20.65625 20.65625 24.097656 19.6875 26.945312 19.984375 C 26.945312 19.984375 25.871094 19.351562 23.105469 19.351562 C 23.105469 19.285156 23.125 14.75 31.945312 11.5 C 40.746094 14.75 40.789062 19.285156 40.789062 19.351562 C 38.003906 19.351562 36.949219 19.984375 36.949219 19.984375 C 39.816406 19.707031 43.238281 20.65625 43.238281 20.65625 Z M 43.238281 20.65625 "/>
<path style=" stroke:none;fill-rule:nonzero;fill:rgb(16.862745%,15.294118%,14.117647%);fill-opacity:1;" d="M 31.417969 23.316406 C 31.417969 23.316406 29.203125 22.558594 28.171875 21.859375 C 27.136719 21.164062 24.539062 20.65625 22.09375 21.542969 C 22.09375 21.542969 22.386719 22.621094 23.316406 23.632812 C 24.246094 24.644531 24.75 25.765625 24.75 26.585938 C 24.75 26.585938 25.386719 25.449219 25.300781 24.414062 C 25.300781 24.414062 26.96875 24.855469 28.59375 24.878906 C 28.59375 24.878906 29.816406 25.53125 28.910156 26.757812 L 29.4375 27.09375 C 29.4375 27.09375 31.523438 25.828125 30.574219 23.65625 C 30.554688 23.65625 31.167969 23.507812 31.417969 23.316406 Z M 31.417969 23.316406 "/>
<path style=" stroke:none;fill-rule:nonzero;fill:rgb(16.862745%,15.294118%,14.117647%);fill-opacity:1;" d="M 32.515625 23.316406 C 32.515625 23.316406 34.734375 22.558594 35.765625 21.859375 C 36.800781 21.164062 39.394531 20.65625 41.84375 21.542969 C 41.84375 21.542969 41.546875 22.621094 40.621094 23.632812 C 39.691406 24.644531 39.183594 25.765625 39.183594 26.585938 C 39.183594 26.585938 38.550781 25.449219 38.636719 24.414062 C 38.636719 24.414062 36.96875 24.855469 35.34375 24.878906 C 35.34375 24.878906 34.121094 25.53125 35.027344 26.757812 L 34.5 27.09375 C 34.5 27.09375 32.410156 25.828125 33.359375 23.65625 C 33.359375 23.65625 32.769531 23.507812 32.515625 23.316406 Z M 32.515625 23.316406 "/>
<path style=" stroke:none;fill-rule:nonzero;fill:rgb(16.862745%,15.294118%,14.117647%);fill-opacity:1;" d="M 37.328125 16.945312 C 37.328125 16.945312 35.789062 19.285156 31.96875 16.945312 C 28.148438 19.285156 26.609375 16.945312 26.609375 16.945312 C 26.019531 17.9375 25.914062 18.929688 25.914062 18.929688 C 25.914062 18.929688 27.453125 18.863281 29.015625 19.984375 C 30.890625 21.355469 31.96875 21.355469 31.96875 21.355469 C 31.96875 21.355469 33.066406 21.355469 34.921875 19.984375 C 36.484375 18.84375 38.023438 18.929688 38.023438 18.929688 C 38.023438 18.929688 37.917969 17.9375 37.328125 16.945312 Z M 37.328125 16.945312 "/>
<path style=" stroke:none;fill-rule:nonzero;fill:rgb(16.862745%,15.294118%,14.117647%);fill-opacity:1;" d="M 16.691406 39.015625 C 18.125 34.921875 24.960938 41.652344 29.4375 47.457031 C 33.148438 52.269531 36.609375 56.109375 41.949219 56.128906 C 46.84375 56.148438 49.945312 51.972656 49.019531 47.5625 C 48.425781 44.734375 46.148438 41.992188 46.148438 41.992188 C 46.148438 41.992188 45.832031 46.929688 42.855469 46.972656 C 39.289062 47.035156 34.351562 42.179688 31.523438 39.777344 C 28.699219 37.390625 21.355469 31.734375 16.710938 34.289062 C 15.003906 35.238281 14.601562 36.503906 14.875 37.433594 C 15.257812 38.847656 16.691406 39.015625 16.691406 39.015625 Z M 16.691406 39.015625 "/>
<path style=" stroke:none;fill-rule:nonzero;fill:rgb(55.294118%,37.254902%,16.470588%);fill-opacity:1;" d="M 46.71875 45.007812 C 46.71875 45.007812 47.351562 48.34375 44.691406 49.3125 C 40.957031 50.707031 35.722656 45.917969 31.652344 42.265625 C 26.019531 37.203125 21.375 34.3125 18.378906 34.945312 C 16.3125 35.367188 16.226562 36.652344 16.226562 36.652344 C 16.226562 36.652344 17.976562 33.992188 23.78125 37.980469 C 29.582031 41.96875 34.164062 49.734375 38.996094 52.246094 C 43.847656 54.757812 47.035156 52.730469 47.5625 50.011719 C 48.109375 47.289062 46.71875 45.007812 46.71875 45.007812 Z M 46.71875 45.007812 "/>
<path style=" stroke:none;fill-rule:nonzero;fill:rgb(16.862745%,15.294118%,14.117647%);fill-opacity:1;" d="M 47.246094 39.015625 C 45.8125 34.921875 38.972656 41.652344 34.5 47.457031 C 30.785156 52.269531 27.324219 56.109375 21.988281 56.128906 C 17.09375 56.148438 13.988281 51.972656 14.917969 47.5625 C 15.507812 44.734375 17.789062 41.992188 17.789062 41.992188 C 17.789062 41.992188 18.105469 46.929688 21.082031 46.972656 C 24.644531 47.035156 29.605469 42.179688 32.410156 39.777344 C 35.238281 37.390625 42.582031 31.734375 47.222656 34.289062 C 48.933594 35.238281 49.335938 36.503906 49.058594 37.433594 C 48.660156 38.847656 47.246094 39.015625 47.246094 39.015625 Z M 47.246094 39.015625 "/>
<path style=" stroke:none;fill-rule:nonzero;fill:rgb(55.294118%,37.254902%,16.470588%);fill-opacity:1;" d="M 17.199219 45.007812 C 17.199219 45.007812 16.566406 48.34375 19.222656 49.3125 C 22.957031 50.707031 28.191406 45.917969 32.265625 42.265625 C 37.898438 37.203125 42.519531 34.3125 45.535156 34.945312 C 47.605469 35.367188 47.6875 36.652344 47.6875 36.652344 C 47.6875 36.652344 45.9375 33.992188 40.132812 37.980469 C 34.332031 41.96875 29.753906 49.734375 24.921875 52.246094 C 20.089844 54.738281 16.882812 52.710938 16.351562 50.011719 C 15.824219 47.289062 17.199219 45.007812 17.199219 45.007812 Z M 17.199219 45.007812 "/>
<path style=" stroke:none;fill-rule:nonzero;fill:rgb(83.529412%,64.313725%,28.627451%);fill-opacity:1;" d="M 37.625 23.527344 C 37.625 23.589844 37.625 23.65625 37.601562 23.695312 C 36.992188 23.90625 36.316406 24.035156 35.597656 24.078125 C 35.40625 23.929688 35.300781 23.738281 35.300781 23.527344 C 35.300781 23.421875 35.34375 23.316406 35.386719 23.210938 C 35.957031 23.019531 37.308594 22.683594 37.960938 22.664062 C 38.191406 22.808594 37.625 23.273438 37.625 23.527344 Z M 37.625 23.527344 "/>
<path style=" stroke:none;fill-rule:nonzero;fill:rgb(83.529412%,64.313725%,28.627451%);fill-opacity:1;" d="M 28.738281 23.445312 C 28.738281 23.378906 28.738281 23.316406 28.71875 23.273438 C 28.105469 23.0625 26.691406 22.703125 25.976562 22.683594 C 25.785156 22.832031 26.417969 23.253906 26.417969 23.464844 C 26.417969 23.570312 26.460938 23.675781 26.503906 23.78125 C 27.074219 23.972656 27.683594 24.078125 28.339844 24.097656 C 28.570312 23.929688 28.738281 23.695312 28.738281 23.445312 Z M 28.738281 23.445312 "/>
<path style=" stroke:none;fill-rule:nonzero;fill:rgb(80%,62.352941%,32.54902%);fill-opacity:1;" d="M 0.167969 31.636719 L 2.6875 29.117188 L 3.898438 30.324219 L 1.375 32.847656 Z M 0.167969 31.636719 "/>
<path style=" stroke:none;fill-rule:nonzero;fill:rgb(80%,62.352941%,32.54902%);fill-opacity:1;" d="M 60.101562 30.757812 L 62.625 28.234375 L 63.832031 29.445312 L 61.3125 31.964844 Z M 60.101562 30.757812 "/>
<path style=" stroke:none;fill-rule:nonzero;fill:rgb(83.529412%,64.313725%,28.627451%);fill-opacity:1;" d="M 14.644531 12.046875 L 13.820312 11.375 L 11.121094 14.644531 C 9.894531 16.121094 10.191406 17.21875 11.542969 18.335938 C 12.894531 19.457031 14.03125 19.519531 15.257812 18.042969 L 17.957031 14.769531 L 17.132812 14.09375 L 14.433594 17.367188 C 13.757812 18.167969 13.273438 18.167969 12.660156 17.765625 L 16.207031 13.460938 L 15.425781 12.828125 L 11.902344 17.132812 C 11.394531 16.628906 11.289062 16.121094 11.964844 15.320312 Z M 14.644531 12.046875 "/>
<path style=" stroke:none;fill-rule:nonzero;fill:rgb(83.529412%,64.313725%,28.627451%);fill-opacity:1;" d="M 22.453125 7.28125 C 22.980469 7.132812 23.042969 7.195312 24.855469 8.523438 C 26.796875 9.9375 27.304688 10.234375 28.570312 9.855469 L 29.332031 9.621094 L 27.8125 4.496094 L 26.734375 4.8125 L 27.9375 8.863281 C 27.390625 9.03125 27.261719 8.925781 25.53125 7.617188 C 23.695312 6.203125 23.191406 5.886719 21.820312 6.289062 L 21.058594 6.519531 L 22.578125 11.648438 L 23.65625 11.332031 Z M 22.453125 7.28125 "/>
<path style=" stroke:none;fill-rule:nonzero;fill:rgb(83.529412%,64.313725%,28.627451%);fill-opacity:1;" d="M 42.917969 6.625 L 38.867188 5.359375 C 37.03125 4.789062 36.125 5.464844 35.597656 7.152344 C 35.070312 8.839844 35.429688 9.894531 37.265625 10.488281 L 41.316406 11.753906 L 41.632812 10.699219 L 37.582031 9.433594 C 36.355469 9.050781 36.378906 8.484375 36.675781 7.492188 C 36.96875 6.519531 37.285156 6.015625 38.53125 6.394531 L 42.582031 7.660156 Z M 42.917969 6.625 "/>
<path style=" stroke:none;fill-rule:nonzero;fill:rgb(83.529412%,64.313725%,28.627451%);fill-opacity:1;" d="M 53.257812 17.050781 L 54.082031 16.375 L 51.359375 13.125 C 50.136719 11.648438 48.996094 11.730469 47.648438 12.871094 C 46.296875 14.011719 46.023438 15.109375 47.246094 16.566406 L 49.96875 19.8125 L 50.789062 19.117188 L 48.070312 15.867188 C 47.394531 15.066406 47.5 14.582031 47.984375 14.054688 L 51.570312 18.335938 L 52.332031 17.683594 L 48.742188 13.398438 C 49.335938 13 49.839844 12.976562 50.515625 13.777344 Z M 53.257812 17.050781 "/>
</g>
</svg>
